<svg xmlns="http://www.w3.org/2000/svg" width="1846" height="135" viewBox="0 0 1846 135"><defs><style>.a,.d,.g{fill:none;}.a,.c{stroke:#707070;}.a,.d{stroke-width:10px;}.b{fill:#8b8b8b;}.c{fill:#707070;stroke-width:2px;font-size:66px;font-family:SegoeUI, Segoe UI;}.d{stroke:#7b7b7b;}.e,.f{stroke:none;}.f{fill:#707070;}</style></defs><g transform="translate(-49 -223)"><g transform="translate(615.953 271)"><line class="a" x2="120" transform="translate(0.047 20)"/><g class="b" transform="translate(132.047) rotate(90)"><path class="e" d="M 38 25.5 L 1 25.5 L 19.5 0.8333333134651184 L 38 25.5 Z"/><path class="f" d="M 19.5 1.666666030883789 L 2 25 L 37 25 L 19.5 1.666666030883789 M 19.5 0 L 39 26 L 0 26 L 19.5 0 Z"/></g></g><g transform="translate(1189.42 271)"><line class="a" x2="114" transform="translate(-0.42 20)"/><g class="b" transform="translate(138.58) rotate(90)"><path class="e" d="M 37.97588348388672 24.5 L 1.024115562438965 24.5 L 19.5 0.8129687309265137 L 37.97588348388672 24.5 Z"/><path class="f" d="M 19.5 1.625926971435547 L 2.048221588134766 24 L 36.95177459716797 24 L 19.5 1.625926971435547 M 19.5 0 L 39 25 L 0 25 L 19.5 0 Z"/></g></g><g transform="translate(-179 -32)"><text class="c" transform="translate(1126 348.5)"><tspan x="0" y="0">b</tspan></text><text class="c" transform="translate(1218 348.5)"><tspan x="0" y="0">next</tspan></text><g class="d" transform="translate(927 255)"><rect class="e" width="441" height="135"/><rect class="g" x="5" y="5" width="431" height="125"/></g><line class="a" y1="133" transform="translate(1097.5 255.5)"/><line class="a" y1="133" transform="translate(1191.5 255.5)"/><text class="c" transform="translate(945 348.5)"><tspan x="0" y="0">prev</tspan></text></g><g transform="translate(-192 -31)"><g class="d" transform="translate(241 254)"><rect class="e" width="567" height="135"/><rect class="g" x="5" y="5" width="557" height="125"/></g><line class="a" y1="134" transform="translate(477.5 254.5)"/><line class="a" y1="134" transform="translate(598.5 254.5)"/><text class="c" transform="translate(517 348.5)"><tspan x="0" y="0">a</tspan></text><text class="c" transform="translate(623 348.5)"><tspan x="0" y="0">next</tspan></text><text class="c" transform="translate(262 348.5)"><tspan x="0" y="0">nullptr</tspan></text></g><g transform="translate(1328 223)"><g class="d"><rect class="e" width="567" height="135"/><rect class="g" x="5" y="5" width="557" height="125"/></g><line class="a" y1="134" transform="translate(188.5 0.5)"/><line class="a" y1="134" transform="translate(298.5 0.5)"/><text class="c" transform="translate(226.5 94.5)"><tspan x="0" y="0">a</tspan></text><text class="c" transform="translate(37.5 94.5)"><tspan x="0" y="0">prev</tspan></text><text class="c" transform="translate(336.5 94.5)"><tspan x="0" y="0">nullptr</tspan></text></g></g></svg>