<svg xmlns="http://www.w3.org/2000/svg" width="1715" height="171" viewBox="0 0 1715 171"><g transform="translate(-108 -236)"><g transform="translate(108 236)" fill="none" stroke="#7b7b7b" stroke-width="10"><rect width="299" height="171" stroke="none"/><rect x="5" y="5" width="289" height="161" fill="none"/></g><line y1="170.593" transform="translate(257.965 236.404)" fill="none" stroke="#707070" stroke-width="10"/><g transform="translate(406.635 302)"><line x2="113" transform="translate(0.365 20)" fill="none" stroke="#707070" stroke-width="10"/><g transform="translate(138.365) rotate(90)" fill="#8b8b8b"><path d="M 37.97588348388672 24.5 L 1.024115562438965 24.5 L 19.5 0.8129687309265137 L 37.97588348388672 24.5 Z" stroke="none"/><path d="M 19.5 1.625926971435547 L 2.048221588134766 24 L 36.95177459716797 24 L 19.5 1.625926971435547 M 19.5 0 L 39 25 L 0 25 L 19.5 0 Z" stroke="none" fill="#707070"/></g></g><g transform="translate(545 236)" fill="none" stroke="#7b7b7b" stroke-width="10"><rect width="299" height="171" stroke="none"/><rect x="5" y="5" width="289" height="161" fill="none"/></g><line y1="170.593" transform="translate(694.769 236.404)" fill="none" stroke="#707070" stroke-width="10"/><g transform="translate(843.953 302)"><line x2="112" transform="translate(0.047 20)" fill="none" stroke="#707070" stroke-width="10"/><g transform="translate(138.047) rotate(90)" fill="#8b8b8b"><path d="M 38 25.5 L 1 25.5 L 19.5 0.8333333134651184 L 38 25.5 Z" stroke="none"/><path d="M 19.5 1.666666030883789 L 2 25 L 37 25 L 19.5 1.666666030883789 M 19.5 0 L 39 26 L 0 26 L 19.5 0 Z" stroke="none" fill="#707070"/></g></g><g transform="translate(982 236)" fill="none" stroke="#7b7b7b" stroke-width="10"><rect width="298" height="171" stroke="none"/><rect x="5" y="5" width="288" height="161" fill="none"/></g><line y1="170.593" transform="translate(1131.574 236.404)" fill="none" stroke="#707070" stroke-width="10"/><g transform="translate(1280.42 302)"><line x2="114" transform="translate(-0.42 20)" fill="none" stroke="#707070" stroke-width="10"/><g transform="translate(138.58) rotate(90)" fill="#8b8b8b"><path d="M 37.97588348388672 24.5 L 1.024115562438965 24.5 L 19.5 0.8129687309265137 L 37.97588348388672 24.5 Z" stroke="none"/><path d="M 19.5 1.625926971435547 L 2.048221588134766 24 L 36.95177459716797 24 L 19.5 1.625926971435547 M 19.5 0 L 39 25 L 0 25 L 19.5 0 Z" stroke="none" fill="#707070"/></g></g><g transform="translate(1419 236)" fill="none" stroke="#7b7b7b" stroke-width="10"><rect width="404" height="171" stroke="none"/><rect x="5" y="5" width="394" height="161" fill="none"/></g><line y1="170.593" transform="translate(1568.379 236.404)" fill="none" stroke="#707070" stroke-width="10"/><text transform="translate(161 347)" fill="#707070" stroke="#707070" stroke-width="2" font-size="83" font-family="SegoeUI, Segoe UI"><tspan x="0" y="0">a</tspan></text><text transform="translate(309 347)" fill="#707070" stroke="#707070" stroke-width="2" font-size="83" font-family="SegoeUI, Segoe UI"><tspan x="0" y="0">b</tspan></text><text transform="translate(602 347)" fill="#707070" stroke="#707070" stroke-width="2" font-size="83" font-family="SegoeUI, Segoe UI"><tspan x="0" y="0">c</tspan></text><text transform="translate(746 347)" fill="#707070" stroke="#707070" stroke-width="2" font-size="83" font-family="SegoeUI, Segoe UI"><tspan x="0" y="0">d</tspan></text><text transform="translate(1048 347)" fill="#707070" stroke="#707070" stroke-width="2" font-size="83" font-family="SegoeUI, Segoe UI"><tspan x="0" y="0">e</tspan></text><text transform="translate(1197 347)" fill="#707070" stroke="#707070" stroke-width="2" font-size="83" font-family="SegoeUI, Segoe UI"><tspan x="0" y="0">f</tspan></text><text transform="translate(1478 347)" fill="#707070" stroke="#707070" stroke-width="2" font-size="83" font-family="SegoeUI, Segoe UI"><tspan x="0" y="0">g</tspan></text><text transform="translate(1600 340)" fill="#707070" stroke="#707070" stroke-width="2" font-size="66" font-family="SegoeUI, Segoe UI"><tspan x="0" y="0">nullptr</tspan></text></g></svg>