<svg xmlns="http://www.w3.org/2000/svg" xmlns:xlink="http://www.w3.org/1999/xlink" width="1410.5" height="300" viewBox="0 0 1410.5 300">
  <defs>
 <style>
.cls-1, .cls-3 {
  fill: none;
}
.cls-2 {
  clip-path: url(#clip-path);
}
.cls-3, .cls-5 {
  stroke: #c4c4c4;
}
.cls-3 {
  stroke-width: 4px;
}
.cls-4, .cls-5 {
  fill: #c2c2c2;
}
.cls-4 {
  font-size: 83px;
  font-family: SegoeUI, Segoe UI;
}
.cls-6 {
  stroke: none;
}
 </style>
 <clipPath id="clip-path">
<rect class="cls-1" width="993" height="178"/>
 </clipPath>
  </defs>
  <g id="Group_4" data-name="Group 4" transform="translate(-239 -322)">
 <g id="Group_1" data-name="Group 1" transform="translate(-131 122.5)">
<g id="Repeat_Grid_1" data-name="Repeat Grid 1" class="cls-2" transform="translate(370 201.5)">
  <g transform="translate(-370 -201.5)">
 <line id="Line_1" data-name="Line 1" class="cls-3" y2="178" transform="translate(370.5 201.5)"/>
  </g>
  <g transform="translate(-175 -201.5)">
 <line id="Line_1-2" data-name="Line 1" class="cls-3" y2="178" transform="translate(370.5 201.5)"/>
  </g>
  <g transform="translate(20 -201.5)">
 <line id="Line_1-3" data-name="Line 1" class="cls-3" y2="178" transform="translate(370.5 201.5)"/>
  </g>
  <g transform="translate(215 -201.5)">
 <line id="Line_1-4" data-name="Line 1" class="cls-3" y2="178" transform="translate(370.5 201.5)"/>
  </g>
  <g transform="translate(410 -201.5)">
 <line id="Line_1-5" data-name="Line 1" class="cls-3" y2="178" transform="translate(370.5 201.5)"/>
  </g>
  <g transform="translate(605 -201.5)">
 <line id="Line_1-6" data-name="Line 1" class="cls-3" y2="178" transform="translate(370.5 201.5)"/>
  </g>
</g>
<line id="Line_2" data-name="Line 2" class="cls-3" x2="1410" transform="translate(370.5 201.5)"/>
<line id="Line_3" data-name="Line 3" class="cls-3" x2="1410" transform="translate(370.5 379.5)"/>
 </g>
 <g id="Group_2" data-name="Group 2" transform="translate(-14)">
<text id="_0" data-name="0" class="cls-4" transform="translate(323 601)"><tspan x="0" y="0">0</tspan></text>
<text id="_1" data-name="1" class="cls-4" transform="translate(519 601)"><tspan x="0" y="0">1</tspan></text>
<text id="_2" data-name="2" class="cls-4" transform="translate(716 601)"><tspan x="0" y="0">2</tspan></text>
<text id="_3" data-name="3" class="cls-4" transform="translate(912 601)"><tspan x="0" y="0">3</tspan></text>
<text id="_4" data-name="4" class="cls-4" transform="translate(1109 601)"><tspan x="0" y="0">4</tspan></text>
 </g>
 <g id="Group_3" data-name="Group 3" transform="translate(0 -1)">
<g id="Ellipse_1" data-name="Ellipse 1" class="cls-5" transform="translate(1257 402)">
  <ellipse class="cls-6" cx="11" cy="12" rx="11" ry="12"/>
  <ellipse class="cls-1" cx="11" cy="12" rx="10.5" ry="11.5"/>
</g>
<g id="Ellipse_1-2" data-name="Ellipse 1" class="cls-5" transform="translate(1321 402)">
  <ellipse class="cls-6" cx="11" cy="12" rx="11" ry="12"/>
  <ellipse class="cls-1" cx="11" cy="12" rx="10.5" ry="11.5"/>
</g>
<g id="Ellipse_1-3" data-name="Ellipse 1" class="cls-5" transform="translate(1385 402)">
  <ellipse class="cls-6" cx="11" cy="12" rx="11" ry="12"/>
  <ellipse class="cls-1" cx="11" cy="12" rx="10.5" ry="11.5"/>
</g>
 </g>
  </g>
</svg>
