<svg xmlns="http://www.w3.org/2000/svg" width="1409.5" height="301" viewBox="0 0 1409.5 301"><g transform="translate(-240 -678)"><g transform="translate(3 354)"><text transform="translate(309 601)" fill="#707070" stroke="#707070" stroke-width="3" font-size="83" font-family="SegoeUI, Segoe UI"><tspan x="0" y="0">0</tspan></text><text transform="translate(505 601)" fill="#707070" stroke="#707070" stroke-width="3" font-size="83" font-family="SegoeUI, Segoe UI"><tspan x="0" y="0">1</tspan></text><text transform="translate(702 601)" fill="#707070" stroke="#707070" stroke-width="3" font-size="83" font-family="SegoeUI, Segoe UI"><tspan x="0" y="0">2</tspan></text><text transform="translate(898 601)" fill="#707070" stroke="#707070" stroke-width="3" font-size="83" font-family="SegoeUI, Segoe UI"><tspan x="0" y="0">3</tspan></text><text transform="translate(1095 601)" fill="#707070" stroke="#707070" stroke-width="3" font-size="83" font-family="SegoeUI, Segoe UI"><tspan x="0" y="0">4</tspan></text></g><line y2="178" transform="translate(434.5 680)" fill="none" stroke="#707070" stroke-width="11"/><line y2="178" transform="translate(630.5 680)" fill="none" stroke="#707070" stroke-width="11"/><line y2="178" transform="translate(826.5 680)" fill="none" stroke="#707070" stroke-width="11"/><line y2="178" transform="translate(1022.5 680)" fill="none" stroke="#707070" stroke-width="11"/><line x2="585" transform="translate(1064.5 853)" fill="none" stroke="#707070" stroke-width="10"/><line x2="585" transform="translate(1064.5 683)" fill="none" stroke="#707070" stroke-width="10"/><g transform="translate(240 678)" fill="none" stroke="#707070" stroke-width="10"><rect width="975" height="180" stroke="none"/><rect x="5" y="5" width="965" height="170" fill="none"/></g><g transform="translate(1257 760)" fill="#707070" stroke="#707070" stroke-width="10"><ellipse cx="11" cy="12" rx="11" ry="12" stroke="none"/><ellipse cx="11" cy="12" rx="6" ry="7" fill="none"/></g><g transform="translate(1321 760)" fill="#707070" stroke="#707070" stroke-width="10"><ellipse cx="11" cy="12" rx="11" ry="12" stroke="none"/><ellipse cx="11" cy="12" rx="6" ry="7" fill="none"/></g><g transform="translate(1385 760)" fill="#707070" stroke="#707070" stroke-width="10"><ellipse cx="11" cy="12" rx="11" ry="12" stroke="none"/><ellipse cx="11" cy="12" rx="6" ry="7" fill="none"/></g></g></svg>